<svg version="1.1" xmlns="http://www.w3.org/2000/svg" xmlns:xlink="http://www.w3.org/1999/xlink" width="164.4499969482422" height="37.589996337890625"><defs></defs><g transform="translate(-85.15615844726562,17.169998168945312)"><rect fill="rgb(255,255,255)" stroke="none" x="0" y="0" width="164.4499969482422" height="37.589996337890625" fill-opacity="0" transform="translate(85.15615844726562,-17.169998168945312)"></rect><g transform="translate(83.35615539550781,19) rotate(0,0,0) translate(-83.35615539550781,-19) matrix(1,0,0,1,83.35615539550781,19)"><path fill="rgb(15,27,46)" fill-opacity="1" d="M4.01 0.79Q2.86 0.79 2.40 0.58Q1.95 0.36 1.95-0.26L1.95-0.26L1.95-1.18Q1.90-1.56 1.90-2.04L1.90-2.04L1.90-2.14L1.95-9.14L1.90-28.97Q1.90-32.04 1.80-34.30L1.80-34.30Q1.80-34.87 2.04-35.26Q2.28-35.64 2.67-35.64L2.67-35.64L5.64-35.64Q6.32-35.64 6.65-35.54L6.65-35.54Q7.13-35.40 7.13-34.73L7.13-34.73Q7.13-34.34 6.84-34.10Q6.56-33.86 6.22-33.82L6.22-33.82L5.40-33.82L4.64-33.86L3.87-33.91Q3.53-33.91 3.41-33.79Q3.29-33.67 3.29-33.34L3.29-33.34Q3.29-31.08 3.34-29.26L3.34-29.26L3.34-25.18L3.34-19.18Q3.34-19.08 3.44-19.08L3.44-19.08L3.48-19.08L3.53-19.08Q4.73-19.18 6.12-19.18L6.12-19.18Q6.89-19.18 6.89-18.50L6.89-18.50Q6.89-18.02 6.72-17.86Q6.56-17.69 6.17-17.69L6.17-17.69L3.44-17.69Q3.24-17.69 3.24-17.45L3.24-17.45L3.34-10.34Q3.44-7.03 3.44-2.71L3.44-2.71L3.44-0.94L5.50-0.94L7.52-0.94L7.95-0.94Q8.81-0.94 8.81-0.31L8.81-0.31Q8.81 0.46 8.38 0.60L8.38 0.60Q7.80 0.79 6.03 0.79L6.03 0.79L4.01 0.79ZM21.96 1.32L21.29 1.08Q20.72 0.46 20.04-2.23Q19.37-4.92 18.80-8.28L18.80-8.28Q18.41-11.02 17.69-13.70L17.69-13.70Q17.12-16.10 16.59-16.10L16.59-16.10L16.44-16.10Q15.39-16.10 15.39-15.43L15.39-15.43Q15.39-11.98 15.77-4.92L15.77-4.92Q15.96-0.60 16.20 0.12L16.20 0.12L15.82 0.94L15.15 0.94L14.76 0.55Q14.00-21.62 14.00-29.69L14.00-29.69Q14.00-30.22 14.07-30.55Q14.14-30.89 14.38-31.18L14.38-31.18Q14.57-31.51 15.05-31.51L15.05-31.51Q17.50-31.51 18.99-30.31Q20.48-29.11 20.48-26.86L20.48-26.86L20.48-23.35Q20.48-22.44 19.88-20.90Q19.28-19.37 18.56-18.07L18.56-18.07L17.93-16.87Q18.46-14.42 20.02-8.06Q21.58-1.70 21.72-1.32L21.72-1.32Q21.77-1.27 21.84-1.08Q21.92-0.89 22.16-0.50L22.16-0.50Q22.49 0.17 22.49 0.65L22.49 0.65Q22.49 1.32 21.96 1.32L21.96 1.32ZM15.63-17.30Q16.54-17.30 17.26-18.22Q17.98-19.13 18.41-20.57L18.41-20.57Q19.18-23.50 19.18-25.22L19.18-25.22Q19.18-26.33 19.06-27.05Q18.94-27.77 18.65-28.58L18.65-28.58Q18.08-30.26 15.92-30.26L15.92-30.26Q15.68-30.26 15.53-29.86Q15.39-29.45 15.39-29.02L15.39-29.02Q15.39-25.80 15.48-23.21L15.48-23.21Q15.53-20.62 15.53-17.40L15.53-17.40L15.63-17.30ZM30.46 0.50Q29.36 0.50 29.16 0.02L29.16 0.02Q28.92 0.02 28.78 0.07L28.78 0.07L28.40 0.07Q27.34 0.07 27.05-0.41L27.05-0.41Q27.05-0.74 27.44-0.98L27.44-0.98L27.68-1.22L29.07-1.22L29.26-1.42L29.36-1.85L29.40-2.42Q29.40-5.35 29.26-7.66L29.26-7.66L29.16-9.43L29.07-12.94Q29.07-14.81 29.21-18.55L29.21-18.55L29.31-24.12Q29.31-27.77 29.07-29.69L29.07-29.69Q28.64-29.83 27.63-29.83L27.63-29.83L27.10-29.78Q26.81-29.74 26.48-29.74L26.48-29.74Q25.56-29.74 25.56-30.55L25.56-30.55Q25.56-30.74 26.00-30.94Q26.43-31.13 26.72-31.13L26.72-31.13Q28.54-31.13 30.36-30.94L30.36-30.94Q31.47-30.89 32.57-30.50L32.57-30.50Q33.44-30.22 33.44-29.69L33.44-29.69Q33.44-29.59 33.29-29.30L33.29-29.30L32.19-29.21Q31.85-29.50 30.80-29.50L30.80-29.50L30.56-29.35Q30.70-28.92 30.70-26.81L30.70-26.81Q30.70-23.64 30.65-21.10L30.65-21.10L30.56-15.38Q30.56-13.22 30.75-10.15L30.75-10.15Q30.89-6.65 30.89-4.87L30.89-4.87L30.89-4.25Q30.84-3.91 30.84-3.38L30.84-3.38Q30.84-2.28 30.99-2.04L30.99-2.04L30.94-1.94Q30.94-1.46 32.00-1.46L32.00-1.46Q32.43-1.46 32.72-1.51L32.72-1.51L33.44-1.51Q34.83-1.51 34.83-0.84L34.83-0.84Q34.83-0.41 34.54-0.14Q34.25 0.12 33.77 0.12L33.77 0.12Q33.34 0.12 33.00 0.02L33.00 0.02Q32.62-0.02 32.19-0.02L32.19-0.02Q31.90-0.02 31.32 0.22L31.32 0.22Q30.75 0.50 30.46 0.50L30.46 0.50ZM51.48 0.70Q51.10 0.70 50.93 0.41Q50.76 0.12 50.62-0.46L50.62-0.46Q50.57-0.84 50.43-1.13L50.43-1.13L50.48-1.27Q50.09-3.53 48.84-6.79L48.84-6.79L47.98-9.29Q47.88-9.38 47.07-11.74L47.07-11.74L46.68-12.89Q42.36-26.23 41.26-27.34L41.26-27.34Q40.88-26.04 40.88-23.98L40.88-23.98Q40.88-22.87 40.92-22.06L40.92-22.06L40.97-20.18L40.92-19.03Q40.88-18.50 40.88-17.88L40.88-17.88Q40.88-16.82 40.97-16.06L40.97-16.06Q41.07-14.52 41.07-14.52L41.07-14.52L40.92-14.52Q40.92-6.50 41.26-5.69L41.26-5.69L41.26-1.37Q41.45-0.98 41.45-0.36L41.45-0.36Q41.45 0.02 41.19 0.31Q40.92 0.60 40.54 0.60L40.54 0.60Q39.53 0.60 39.53-1.99L39.53-1.99L39.63-3.53Q39.72-4.25 39.72-5.11L39.72-5.11Q39.72-7.42 39.58-12.02L39.58-12.02Q39.44-16.63 39.44-18.94L39.44-18.94Q39.44-20.33 39.58-23.21L39.58-23.21Q39.72-26.04 39.72-27.43L39.72-27.43L39.72-28.06Q39.72-30.41 40.59-31.13L40.59-31.13L40.73-30.98L41.21-31.08Q41.40-31.03 41.64-30.79L41.64-30.79Q41.84-30.60 41.84-30.36L41.84-30.36L41.93-30.07Q41.93-29.98 41.96-29.90Q41.98-29.83 41.98-29.83L41.98-29.83Q42.75-26.42 45.44-20.28L45.44-20.28Q48.17-13.80 48.84-11.69L48.84-11.69Q49.32-10.01 49.61-8.71L49.61-8.71Q50.52-4.63 51.77-2.42L51.77-2.42L51.87-2.57Q52.97-13.22 52.97-28.73L52.97-28.73L52.92-29.30Q52.88-29.54 52.88-29.93L52.88-29.93Q52.88-30.94 53.55-30.94L53.55-30.94Q53.98-30.94 54.29-30.50Q54.60-30.07 54.60-29.54L54.60-29.54L54.60-26.33L54.36-25.94Q54.36-21.38 53.84-10.97Q53.31-0.55 52.83 0.36L52.83 0.36L52.01 0.55L52.01 0.60L51.96 0.55L51.48 0.70ZM75.77 1.27Q74.43 1.27 72.94 0.22Q71.45-0.84 70.83-2.18L70.83-2.18Q70.25-3.43 69.65-10.10Q69.05-16.78 69.05-20.04L69.05-20.04L69.05-22.58Q69.00-23.69 69.00-25.03L69.00-25.03Q69.00-27.53 69.29-29.98L69.29-29.98Q69.48-31.18 69.80-32.04Q70.11-32.90 70.68-33.72L70.68-33.72Q71.74-35.35 73.85-35.88L73.85-35.88Q74.96-36.17 76.30-36.17L76.30-36.17Q77.21-36.17 78.15-35.64Q79.08-35.11 79.08-34.39L79.08-34.39Q79.08-33.86 78.32-33.86L78.32-33.86Q78.03-33.86 77.21-34.20L77.21-34.20Q76.49-34.54 75.92-34.54L75.92-34.54Q74.57-34.54 73.49-33.98Q72.41-33.43 71.79-32.52L71.79-32.52Q71.26-31.75 70.88-30.41Q70.49-29.06 70.40-27.72L70.40-27.72Q70.25-26.52 70.25-24.84L70.25-24.84L70.30-22.15Q70.35-21.00 70.35-19.66L70.35-19.66Q70.35-16.34 71.02-9.91Q71.69-3.48 72.32-2.47L72.32-2.47Q72.89-1.56 74.02-1.08Q75.15-0.60 76.40-0.60L76.40-0.60Q78.60-0.60 79.76-1.99L79.76-1.99Q80.19-2.57 80.67-2.57L80.67-2.57Q81.10-2.57 81.10-1.90L81.10-1.90Q81.10-1.03 80.57-0.38Q80.04 0.26 79.13 0.60L79.13 0.60Q77.60 1.27 75.77 1.27L75.77 1.27ZM93.39 1.32L92.72 1.08Q92.14 0.46 91.47-2.23Q90.80-4.92 90.22-8.28L90.22-8.28Q89.84-11.02 89.12-13.70L89.12-13.70Q88.54-16.10 88.01-16.10L88.01-16.10L87.87-16.10Q86.81-16.10 86.81-15.43L86.81-15.43Q86.81-11.98 87.20-4.92L87.20-4.92Q87.39-0.60 87.63 0.12L87.63 0.12L87.24 0.94L86.57 0.94L86.19 0.55Q85.42-21.62 85.42-29.69L85.42-29.69Q85.42-30.22 85.49-30.55Q85.56-30.89 85.80-31.18L85.80-31.18Q86.00-31.51 86.48-31.51L86.48-31.51Q88.92-31.51 90.41-30.31Q91.90-29.11 91.90-26.86L91.90-26.86L91.90-23.35Q91.90-22.44 91.30-20.90Q90.70-19.37 89.98-18.07L89.98-18.07L89.36-16.87Q89.88-14.42 91.44-8.06Q93.00-1.70 93.15-1.32L93.15-1.32Q93.20-1.27 93.27-1.08Q93.34-0.89 93.58-0.50L93.58-0.50Q93.92 0.17 93.92 0.65L93.92 0.65Q93.92 1.32 93.39 1.32L93.39 1.32ZM87.05-17.30Q87.96-17.30 88.68-18.22Q89.40-19.13 89.84-20.57L89.84-20.57Q90.60-23.50 90.60-25.22L90.60-25.22Q90.60-26.33 90.48-27.05Q90.36-27.77 90.08-28.58L90.08-28.58Q89.50-30.26 87.34-30.26L87.34-30.26Q87.10-30.26 86.96-29.86Q86.81-29.45 86.81-29.02L86.81-29.02Q86.81-25.80 86.91-23.21L86.91-23.21Q86.96-20.62 86.96-17.40L86.96-17.40L87.05-17.30ZM104.28 1.42Q98.67 1.42 98.67-16.25L98.67-16.25L98.67-17.93Q98.67-31.32 102.12-31.32L102.12-31.32Q102.36-31.32 102.80-31.18L102.80-31.18Q104.33-30.65 105.82-30.50L105.82-30.50Q106.73-30.31 107.64-28.63L107.64-28.63Q108.65-26.90 109.16-24.07Q109.66-21.24 109.66-18.26L109.66-18.26L109.56-18.02Q109.56-16.44 109.61-15.19L109.61-15.19L109.66-12.31Q109.66-9.86 109.47-7.90L109.47-7.90Q109.18-4.92 108.51-2.76L108.51-2.76Q108.08-1.46 107.52-0.60Q106.97 0.26 106.16 0.84L106.16 0.84Q105.39 1.42 104.28 1.42L104.28 1.42ZM104.09 0.02Q105.96 0.02 106.88-2.62L106.88-2.62Q107.79-5.30 107.98-8.09L107.98-8.09Q108.17-10.97 108.17-12.70L108.17-12.70Q108.17-14.62 107.88-18.36L107.88-18.36Q107.64-22.54 107.64-24.02L107.64-24.02L107.45-24.41L107.55-24.65Q107.55-26.76 106.37-28.30Q105.20-29.83 103.52-29.83L103.52-29.83Q101.31-29.83 100.88-27.72L100.88-27.72Q100.78-27.00 100.68-25.66L100.68-25.66Q100.68-22.10 100.40-20.81L100.40-20.81Q100.40-20.09 100.25-18.55L100.25-18.55L100.16-16.30Q100.16-15.24 100.20-14.42L100.20-14.42L100.25-12.50Q100.25-10.25 100.64-7.32L100.64-7.32Q100.92-5.16 101.31-3.67Q101.69-2.18 102.41-1.13L102.41-1.13Q103.13 0.02 104.09 0.02L104.09 0.02ZM120.60 1.27L119.45 0.84Q118.54 0.55 117.89 0.02Q117.24-0.50 116.67-1.56L116.67-1.56Q115.66-3.48 115.47-7.08L115.47-7.08Q115.37-8.71 115.37-9.96L115.37-9.96L115.37-15.43Q115.37-18.55 115.56-21.48L115.56-21.48Q115.71-23.64 116.00-25.13Q116.28-26.62 116.91-28.10L116.91-28.10Q117.58-29.64 118.40-30.26L118.40-30.26Q118.73-30.55 119.69-30.94L119.69-30.94Q120.32-31.18 120.89-31.46L120.89-31.46L122.81-31.46L122.96-31.46Q123.00-31.42 123.10-31.42L123.10-31.42L123.34-31.37L123.53-31.22Q123.68-31.08 123.68-31.03L123.68-31.03Q123.72-30.94 123.72-30.74L123.72-30.74L123.10-30.02L121.08-30.02Q120.17-30.02 119.43-29.14Q118.68-28.25 118.30-26.90L118.30-26.90Q117.92-25.70 117.68-24.07Q117.44-22.44 117.39-21.24L117.39-21.24Q117.29-19.70 117.29-19.13L117.29-19.13L117.20-18.89Q117.20-16.20 117.10-14.04L117.10-14.04L117.00-9.19Q117.00-7.08 117.29-5.30L117.29-5.30Q117.53-3.38 118.68-1.85L118.68-1.85Q119.79-0.31 122.09-0.31L122.09-0.31Q122.81-0.31 123.29-0.74L123.29-0.74Q124.01-0.74 124.01-0.22L124.01-0.22Q124.01 0.12 123.41 0.58Q122.81 1.03 122.19 1.27L122.19 1.27L120.60 1.27ZM140.09 1.37Q138.94 1.37 137.36-2.95L137.36-2.95Q135.87-6.94 134.76-11.59Q133.66-16.25 133.56-18.12L133.56-18.12L133.42-18.31L132.70-16.78Q132.17-15.77 131.91-15.12Q131.64-14.47 131.40-13.51L131.40-13.51Q131.12-12.60 131.12-11.64L131.12-11.64Q131.12-10.68 131.02-9.91L131.02-9.91L130.92-8.18L130.92-2.04Q130.92-1.61 131.07-0.65L131.07-0.65Q131.21 0.22 131.21 0.70L131.21 0.70Q131.21 0.94 130.97 1.10Q130.73 1.27 130.44 1.27L130.44 1.27Q129.82 1.27 129.60 1.08Q129.39 0.89 129.39 0.26L129.39 0.26L129.39-8.76Q129.39-9.53 129.63-11.78L129.63-11.78Q129.87-14.04 129.87-14.81L129.87-14.81Q129.87-16.82 130.11-19.46L130.11-19.46Q130.30-22.15 130.30-24.07L130.30-24.07L130.30-30.74Q130.59-31.27 131.21-31.27L131.21-31.27Q131.60-31.27 131.86-31.01Q132.12-30.74 132.12-30.36L132.12-30.36Q131.74-29.50 131.74-28.06L131.74-28.06L131.64-23.02Q131.55-20.71 131.55-17.93L131.55-17.93Q132.03-18.07 135.29-24.55L135.29-24.55Q138.56-30.98 138.89-30.98L138.89-30.98Q140.14-30.98 140.14-30.17L140.14-30.17Q137.07-25.61 135.05-21.29L135.05-21.29L135.00-19.75Q134.96-19.08 134.96-18.22L134.96-18.22Q134.96-16.10 136.59-10.30Q138.22-4.49 139.37-2.23L139.37-2.23Q139.90-1.51 140.00-1.42L140.00-1.42Q140.48-0.74 140.69-0.29Q140.91 0.17 140.91 0.65L140.91 0.65Q140.91 0.98 140.67 1.18Q140.43 1.37 140.09 1.37L140.09 1.37ZM146.33 1.13Q145.47 1.13 145.37 0.12L145.37 0.12L145.37-0.50Q145.42-0.74 145.42-1.08L145.42-1.08L145.23-1.27Q145.61-2.28 145.61-3.24L145.61-3.24Q145.61-4.34 145.47-6.41L145.47-6.41L145.37-9.58Q145.37-11.98 145.52-16.78L145.52-16.78Q145.71-21.05 145.71-24.02L145.71-24.02L145.61-26.90Q145.52-28.20 145.52-29.78L145.52-29.78Q145.52-30.50 145.85-30.82Q146.19-31.13 146.91-31.13L146.91-31.13Q147.39-31.13 147.68-30.84L147.68-30.84Q147.77-30.79 149.07-30.65L149.07-30.65Q150.27-30.50 151.13-30.22L151.13-30.22Q152.04-29.93 152.04-29.50L152.04-29.50Q152.04-29.02 151.13-28.54L151.13-28.54Q148.40-29.45 147.24-29.45L147.24-29.45L147.00-29.16Q147.05-28.73 147.05-27.10L147.05-27.10Q147.05-25.03 146.96-23.40L146.96-23.40Q146.91-21.72 146.91-19.66L146.91-19.66Q146.91-18.31 147.58-18.31L147.58-18.31L148.35-18.36Q148.73-18.41 149.16-18.41L149.16-18.41Q151.04-18.41 151.04-17.54L151.04-17.54Q151.04-17.02 150.80-16.66Q150.56-16.30 150.08-16.30L150.08-16.30Q149.36-16.30 148.97-16.68L148.97-16.68L147.44-16.92L147.20-16.92L146.96-16.68L146.96-16.54Q147.05-15.72 147.05-12.74L147.05-12.74Q147.05-10.87 147.00-9.34L147.00-9.34L146.96-5.93Q146.96-4.06 147.10-2.09L147.10-2.09Q147.15-0.98 147.58-0.62Q148.01-0.26 149.16-0.26L149.16-0.26L150.03-0.31Q150.46-0.36 150.99-0.36L150.99-0.36Q152.38-0.36 152.38 0.26L152.38 0.26Q152.38 1.13 150.27 1.13L150.27 1.13L146.33 1.13ZM165.72 1.32L165.05 1.08Q164.48 0.46 163.80-2.23Q163.13-4.92 162.56-8.28L162.56-8.28Q162.17-11.02 161.45-13.70L161.45-13.70Q160.88-16.10 160.35-16.10L160.35-16.10L160.20-16.10Q159.15-16.10 159.15-15.43L159.15-15.43Q159.15-11.98 159.53-4.92L159.53-4.92Q159.72-0.60 159.96 0.12L159.96 0.12L159.58 0.94L158.91 0.94L158.52 0.55Q157.76-21.62 157.76-29.69L157.76-29.69Q157.76-30.22 157.83-30.55Q157.90-30.89 158.14-31.18L158.14-31.18Q158.33-31.51 158.81-31.51L158.81-31.51Q161.26-31.51 162.75-30.31Q164.24-29.11 164.24-26.86L164.24-26.86L164.24-23.35Q164.24-22.44 163.64-20.90Q163.04-19.37 162.32-18.07L162.32-18.07L161.69-16.87Q162.22-14.42 163.78-8.06Q165.34-1.70 165.48-1.32L165.48-1.32Q165.53-1.27 165.60-1.08Q165.68-0.89 165.92-0.50L165.92-0.50Q166.25 0.17 166.25 0.65L166.25 0.65Q166.25 1.32 165.72 1.32L165.72 1.32ZM159.39-17.30Q160.30-17.30 161.02-18.22Q161.74-19.13 162.17-20.57L162.17-20.57Q162.94-23.50 162.94-25.22L162.94-25.22Q162.94-26.33 162.82-27.05Q162.70-27.77 162.41-28.58L162.41-28.58Q161.84-30.26 159.68-30.26L159.68-30.26Q159.44-30.26 159.29-29.86Q159.15-29.45 159.15-29.02L159.15-29.02Q159.15-25.80 159.24-23.21L159.24-23.21Q159.29-20.62 159.29-17.40L159.29-17.40L159.39-17.30Z"></path></g></g></svg>